<mxfile host="app.diagrams.net" modified="2023-11-24T11:36:48.974Z" agent="Mozilla/5.0 (Macintosh; Intel Mac OS X 10_15_7) AppleWebKit/605.1.15 (KHTML, like Gecko) Version/17.0 Safari/605.1.15" version="22.1.3" etag="IHZZBgGdiA7oYnpJ7xSD" type="github">
  <diagram name="Page-1" id="I4pyEA9U9latIPfKZYiX">
    <mxGraphModel>
      <root>
        <mxCell id="0" />
        <mxCell id="1" parent="0" />
      </root>
    </mxGraphModel>
  </diagram>
</mxfile>
